<svg xmlns="http://www.w3.org/2000/svg" xmlns:xlink="http://www.w3.org/1999/xlink" width="174.377" height="47.659" viewBox="0 0 174.377 47.659">
  <defs>
    <clipPath id="clip-path">
      <rect id="長方形_675" data-name="長方形 675" width="174.377" height="47.659" fill="none"/>
    </clipPath>
  </defs>
  <g id="グループ_1205" data-name="グループ 1205" transform="translate(0 0)">
    <g id="グループ_472" data-name="グループ 472" transform="translate(0 0)" clip-path="url(#clip-path)">
      <path id="パス_654" data-name="パス 654" d="M49.064,10.879a2.635,2.635,0,0,0-1.732.451,2.359,2.359,0,0,0-.667,1.546,1.855,1.855,0,0,0,.286,1.537,2.215,2.215,0,0,0,1.645.452,2.656,2.656,0,0,0,1.721-.441,2.318,2.318,0,0,0,.677-1.543,1.858,1.858,0,0,0-.291-1.541,2.191,2.191,0,0,0-1.638-.46" transform="translate(28.709 6.698)" fill="#0b308d"/>
      <path id="パス_655" data-name="パス 655" d="M48.389,17.509A3.162,3.162,0,0,0,47.1,16.342a4.566,4.566,0,0,0-2.071-.42,4.9,4.9,0,0,0-1.991.433,7.179,7.179,0,0,0-1.4.84l.738-5.72a.644.644,0,0,0-.087-.415.761.761,0,0,0-.378-.286,2.362,2.362,0,0,0-.554-.129,7.951,7.951,0,0,0-.952-.039v0H37.152a.391.391,0,0,0-.236.7.412.412,0,0,0,.078.05,2.017,2.017,0,0,1,1.3,1.9c0,.061,0,.124-.008.186l0,.039-.136,1.042c-.006.044-.01.073-.01.073h0l-1.8,13.9a.575.575,0,0,0,.09.415.721.721,0,0,0,.381.273,2.367,2.367,0,0,0,.553.111,10.352,10.352,0,0,0,1.645,0,2.865,2.865,0,0,0,.572-.108.934.934,0,0,0,.4-.238.683.683,0,0,0,.179-.38l.982-7.621a8.04,8.04,0,0,1,1.388-1.217,1.869,1.869,0,0,1,1.873-.254,1.051,1.051,0,0,1,.427.422,2.045,2.045,0,0,1,.218.729,5.217,5.217,0,0,1-.048,1.254l-.853,6.613a.575.575,0,0,0,.09.415.733.733,0,0,0,.373.273,2.373,2.373,0,0,0,.557.111,9.456,9.456,0,0,0,1.638,0,2.558,2.558,0,0,0,.578-.11.939.939,0,0,0,.394-.236.678.678,0,0,0,.179-.38l.919-7.109a9.452,9.452,0,0,0,.06-2.257,4.088,4.088,0,0,0-.554-1.693" transform="translate(22.371 6.53)" fill="#0b308d"/>
      <path id="パス_656" data-name="パス 656" d="M39.984,12.623a1.022,1.022,0,0,0-.2-.305,1.984,1.984,0,0,0-.574-.389,5.652,5.652,0,0,0-.923-.368,7.893,7.893,0,0,0-1.125-.257,8.529,8.529,0,0,0-3.529.215,6.29,6.29,0,0,0-2,.945A5.476,5.476,0,0,0,29.4,16.3a4.813,4.813,0,0,0,.086,1.916,4.047,4.047,0,0,0,.692,1.4,4.674,4.674,0,0,0,1.079,1.008,10.145,10.145,0,0,0,1.254.727c.427.208.839.407,1.241.595a7.117,7.117,0,0,1,1.019.574,2.307,2.307,0,0,1,.641.65,1.156,1.156,0,0,1,.144.8,2.063,2.063,0,0,1-.262.793,1.852,1.852,0,0,1-.536.59,2.633,2.633,0,0,1-.808.381,3.792,3.792,0,0,1-1.06.139,5.275,5.275,0,0,1-1.559-.2,6.545,6.545,0,0,1-1.131-.452,7.047,7.047,0,0,1-.761-.457c-.454-.318-.766-.326-1.036-.147a.847.847,0,0,0-.286.354,2.374,2.374,0,0,0-.16.5c-.042.189-.082.423-.118.7a4.694,4.694,0,0,0-.048.979,1.134,1.134,0,0,0,.244.643,2.571,2.571,0,0,0,.565.441,5.255,5.255,0,0,0,.95.448,8.617,8.617,0,0,0,2.971.5,9.16,9.16,0,0,0,2.537-.349,7.049,7.049,0,0,0,2.191-1.049,6.15,6.15,0,0,0,1.629-1.748,6.075,6.075,0,0,0,.835-2.436,4.666,4.666,0,0,0-.094-1.873,4.029,4.029,0,0,0-.7-1.394,4.688,4.688,0,0,0-1.1-1.01,11.33,11.33,0,0,0-1.263-.725c-.425-.21-.845-.407-1.257-.6a7.144,7.144,0,0,1-1.045-.574,2.159,2.159,0,0,1-.643-.645,1.156,1.156,0,0,1-.142-.787,1.834,1.834,0,0,1,.2-.62,1.524,1.524,0,0,1,.415-.49,2.173,2.173,0,0,1,.659-.331,3,3,0,0,1,.908-.123,4.137,4.137,0,0,1,1.209.162,6.423,6.423,0,0,1,.958.373c.276.139.507.268.692.383.494.315.766.268,1,.084a.883.883,0,0,0,.242-.359,2.926,2.926,0,0,0,.134-.473c.037-.179.073-.4.105-.658.031-.233.05-.425.063-.582a2.425,2.425,0,0,0,0-.42,1.243,1.243,0,0,0-.063-.315" transform="translate(17.103 6.902)" fill="#0b308d"/>
      <path id="パス_657" data-name="パス 657" d="M50.537,14.2a2.281,2.281,0,0,0-.556-.129,6.779,6.779,0,0,0-.824-.04c-.045,0-.086,0-.129,0v0H45.777a.39.39,0,0,0-.236.7.373.373,0,0,0,.076.05,2.017,2.017,0,0,1,1.3,1.9c0,.063,0,.124-.01.186l0,.04-.134,1.045-.01.068L45.68,26.382a.58.58,0,0,0,.092.417.719.719,0,0,0,.383.273,2.349,2.349,0,0,0,.553.111c.213.021.485.034.816.034s.607-.013.824-.034a2.7,2.7,0,0,0,.574-.11.934.934,0,0,0,.4-.238.675.675,0,0,0,.181-.38L51,14.89a.591.591,0,0,0-.092-.417.758.758,0,0,0-.37-.271" transform="translate(27.943 8.64)" fill="#0b308d"/>
      <path id="パス_658" data-name="パス 658" d="M62.358,15.476a3.193,3.193,0,0,0-1.286-1.16A4.566,4.566,0,0,0,59,13.9a5.125,5.125,0,0,0-2.262.548,8.478,8.478,0,0,0-1.666,1.107l.079-.6a.646.646,0,0,0-.066-.393.68.68,0,0,0-.322-.283,1.682,1.682,0,0,0-.493-.121,5.977,5.977,0,0,0-.619-.032v0H50.4a.39.39,0,0,0-.391.389.4.4,0,0,0,.153.312.364.364,0,0,0,.078.048,2.02,2.02,0,0,1,1.3,1.9c0,.061,0,.124-.01.186a1.5,1.5,0,0,1-.016.187l-.061.475-.068.491h0l-1.081,8.363a.58.58,0,0,0,.092.417.729.729,0,0,0,.381.273,2.367,2.367,0,0,0,.553.111,10.311,10.311,0,0,0,1.642,0,2.7,2.7,0,0,0,.572-.11.934.934,0,0,0,.4-.238.673.673,0,0,0,.179-.38l.984-7.62A7.842,7.842,0,0,1,56.5,17.706a1.867,1.867,0,0,1,1.874-.254,1.037,1.037,0,0,1,.425.422,2.036,2.036,0,0,1,.218.727,5.215,5.215,0,0,1-.047,1.255l-.855,6.611a.58.58,0,0,0,.092.417.724.724,0,0,0,.373.271,2.2,2.2,0,0,0,.556.113c.218.021.491.034.822.034s.6-.013.818-.034a2.532,2.532,0,0,0,.577-.111.923.923,0,0,0,.394-.236.673.673,0,0,0,.179-.38l.926-7.161a9.26,9.26,0,0,0,.058-2.226,4.088,4.088,0,0,0-.557-1.679" transform="translate(30.792 8.556)" fill="#0b308d"/>
      <path id="パス_659" data-name="パス 659" d="M71.12,16.286a2.646,2.646,0,0,0-.582-.11,10.8,10.8,0,0,0-1.68,0,3.237,3.237,0,0,0-.595.107,1.275,1.275,0,0,0-.464.233,1.959,1.959,0,0,0-.305.307l-3.425,3.924,1.2-9.271a.625.625,0,0,0-.087-.415.749.749,0,0,0-.376-.286,2.322,2.322,0,0,0-.554-.129,7.586,7.586,0,0,0-.948-.039v0H60.082l-.032,0a.39.39,0,0,0-.236.7.373.373,0,0,0,.076.05,2.018,2.018,0,0,1,1.3,1.9c0,.063,0,.124-.01.186L59.233,28.494a.577.577,0,0,0,.092.415.719.719,0,0,0,.383.273,2.349,2.349,0,0,0,.553.111,10.292,10.292,0,0,0,1.64,0,2.7,2.7,0,0,0,.574-.11.948.948,0,0,0,.4-.236.69.69,0,0,0,.181-.381l.677-5.236,2.653,5.277a1.1,1.1,0,0,0,.233.367.964.964,0,0,0,.431.233,3.007,3.007,0,0,0,.59.094c.225.019.517.029.881.029s.653-.015.876-.036a3.083,3.083,0,0,0,.58-.1.846.846,0,0,0,.407-.241.677.677,0,0,0,.168-.372,1.139,1.139,0,0,0-.034-.448,2.712,2.712,0,0,0-.191-.511l-3.046-5.888,3.752-3.713a2.89,2.89,0,0,0,.391-.519,1.436,1.436,0,0,0,.184-.514.608.608,0,0,0-.09-.433.749.749,0,0,0-.4-.271" transform="translate(36.465 6.529)" fill="#0b308d"/>
      <path id="パス_660" data-name="パス 660" d="M94.387,15.033a.81.81,0,0,0-.225-.3,2.163,2.163,0,0,0-.436-.273,4.167,4.167,0,0,0-.716-.273,7.782,7.782,0,0,0-.942-.2,7.539,7.539,0,0,0-3.173.205A5.417,5.417,0,0,0,87.223,15a4.34,4.34,0,0,0-1.165,1.272A4.232,4.232,0,0,0,85.5,17.9a3.8,3.8,0,0,0,.069,1.514,2.982,2.982,0,0,0,.557,1.1,3.555,3.555,0,0,0,.876.761,8.188,8.188,0,0,0,1,.523q.5.225.989.41a6.248,6.248,0,0,1,.808.372,1.527,1.527,0,0,1,.485.409.616.616,0,0,1,.1.472,1.166,1.166,0,0,1-.165.485,1.089,1.089,0,0,1-.351.341,2.066,2.066,0,0,1-.554.228,3.038,3.038,0,0,1-.73.082,3.809,3.809,0,0,1-1.147-.157,6.166,6.166,0,0,1-.882-.347,7.118,7.118,0,0,1-.625-.344.815.815,0,0,0-.884-.126.688.688,0,0,0-.267.3,2.1,2.1,0,0,0-.149.425,6.158,6.158,0,0,0-.108.635,3.729,3.729,0,0,0-.034.937,1.064,1.064,0,0,0,.236.578,1.864,1.864,0,0,0,.491.349,5.028,5.028,0,0,0,.784.325,7.35,7.35,0,0,0,1.068.257,7.647,7.647,0,0,0,1.275.1,8.173,8.173,0,0,0,2.1-.263,5.764,5.764,0,0,0,1.784-.8,4.48,4.48,0,0,0,1.289-1.343,4.665,4.665,0,0,0,.635-1.853,3.621,3.621,0,0,0-.081-1.485,3.022,3.022,0,0,0-.574-1.094,3.533,3.533,0,0,0-.9-.761,8.468,8.468,0,0,0-1.007-.517c-.338-.145-.671-.28-1-.4a6.249,6.249,0,0,1-.826-.373,1.647,1.647,0,0,1-.5-.409.614.614,0,0,1-.1-.47,1.037,1.037,0,0,1,.131-.383,1.074,1.074,0,0,1,.288-.313,1.452,1.452,0,0,1,.475-.216,2.787,2.787,0,0,1,.706-.079,3.733,3.733,0,0,1,1.018.124,5.946,5.946,0,0,1,.782.28,5.27,5.27,0,0,1,.553.278c.385.228.6.212.808.1a.613.613,0,0,0,.262-.3,1.739,1.739,0,0,0,.132-.412c.034-.153.068-.352.1-.6.026-.208.042-.383.047-.525s0-.267,0-.364a.965.965,0,0,0-.068-.32" transform="translate(52.006 8.559)" fill="#0b308d"/>
      <path id="パス_661" data-name="パス 661" d="M103.82,17.509a3.168,3.168,0,0,0-1.284-1.167,4.566,4.566,0,0,0-2.071-.42h0a4.894,4.894,0,0,0-1.991.433,7.132,7.132,0,0,0-1.4.84l.737-5.72a.625.625,0,0,0-.087-.415.744.744,0,0,0-.375-.286,2.4,2.4,0,0,0-.556-.129c-.061-.006-.129-.013-.2-.018l-.039,0c-.061,0-.126-.008-.192-.01l-.034,0c-.073,0-.147,0-.223-.006h-.267v0H92.582a.391.391,0,0,0-.236.7.429.429,0,0,0,.076.05,2.017,2.017,0,0,1,1.3,1.9,1.791,1.791,0,0,1-.01.186v.039l-.136,1.042-.01.073-1.8,13.9a.576.576,0,0,0,.092.415.721.721,0,0,0,.381.273,2.367,2.367,0,0,0,.553.111c.213.023.515.034.819.034s.607-.011.824-.034a2.86,2.86,0,0,0,.574-.108.934.934,0,0,0,.4-.238.694.694,0,0,0,.179-.38l.982-7.621a8.1,8.1,0,0,1,1.386-1.217,2.239,2.239,0,0,1,1.288-.4,1.53,1.53,0,0,1,.216.024,1.219,1.219,0,0,1,.37.126,1.047,1.047,0,0,1,.425.422,2.078,2.078,0,0,1,.22.729,5.3,5.3,0,0,1-.048,1.254l-.855,6.613a.576.576,0,0,0,.092.415.726.726,0,0,0,.373.273,2.357,2.357,0,0,0,.556.111,8.138,8.138,0,0,0,.822.036h0c.323,0,.6-.013.818-.036a2.56,2.56,0,0,0,.577-.11.949.949,0,0,0,.394-.236.7.7,0,0,0,.179-.38l.919-7.109a9.636,9.636,0,0,0,.061-2.257,4.137,4.137,0,0,0-.556-1.693" transform="translate(56.498 6.53)" fill="#0b308d"/>
      <path id="パス_662" data-name="パス 662" d="M87.9,17.509a3.168,3.168,0,0,0-1.284-1.167,4.566,4.566,0,0,0-2.071-.42h0a4.894,4.894,0,0,0-1.991.433,7.132,7.132,0,0,0-1.4.84l.737-5.72a.625.625,0,0,0-.087-.415.744.744,0,0,0-.375-.286,2.4,2.4,0,0,0-.556-.129c-.061-.006-.129-.013-.2-.018l-.039,0c-.061,0-.126-.008-.192-.01l-.034,0c-.073,0-.147,0-.223-.006h-.267v0H76.662a.391.391,0,0,0-.236.7.428.428,0,0,0,.076.05,2.017,2.017,0,0,1,1.3,1.9,1.789,1.789,0,0,1-.01.186v.039l-.136,1.042-.01.073-1.8,13.9a.576.576,0,0,0,.092.415.721.721,0,0,0,.381.273,2.367,2.367,0,0,0,.553.111c.213.023.515.034.819.034s.607-.011.824-.034a2.86,2.86,0,0,0,.574-.108.934.934,0,0,0,.4-.238.694.694,0,0,0,.179-.38l.982-7.621a8.037,8.037,0,0,1,1.386-1.217,2.239,2.239,0,0,1,1.288-.4,1.529,1.529,0,0,1,.216.024,1.219,1.219,0,0,1,.37.126,1.047,1.047,0,0,1,.425.422,2.045,2.045,0,0,1,.218.729,5.2,5.2,0,0,1-.047,1.254l-.855,6.613a.576.576,0,0,0,.092.415.726.726,0,0,0,.373.273,2.357,2.357,0,0,0,.556.111,8.137,8.137,0,0,0,.822.036h0c.323,0,.6-.013.818-.036a2.56,2.56,0,0,0,.577-.11.949.949,0,0,0,.394-.236.7.7,0,0,0,.179-.38l.919-7.109a9.635,9.635,0,0,0,.061-2.257,4.137,4.137,0,0,0-.556-1.693" transform="translate(46.696 6.53)" fill="#0b308d"/>
      <path id="パス_663" data-name="パス 663" d="M112.351,16.627a2.994,2.994,0,0,0-.8-1.564,3.614,3.614,0,0,0-1.606-.889,8.734,8.734,0,0,0-2.375-.278,9.473,9.473,0,0,0-1.549.128,11.087,11.087,0,0,0-1.409.326,8.62,8.62,0,0,0-1.157.436,3.088,3.088,0,0,0-.759.462,1.424,1.424,0,0,0-.372.523,2.914,2.914,0,0,0-.166.706,3.823,3.823,0,0,0-.032.59,1.83,1.83,0,0,0,.068.483.823.823,0,0,0,.225.386c.244.226.591.223,1.12-.047.233-.12.519-.25.858-.4a10.018,10.018,0,0,1,1.155-.391,5.419,5.419,0,0,1,1.412-.171,3.174,3.174,0,0,1,.945.118.99.99,0,0,1,.493.312,1.114,1.114,0,0,1,.218.548,3.394,3.394,0,0,1-.015.881l-.058.46h-.889a14.67,14.67,0,0,0-2.8.239,6.934,6.934,0,0,0-2.134.753,4.2,4.2,0,0,0-1.436,1.322,4.417,4.417,0,0,0-.667,1.877,4.109,4.109,0,0,0,.111,1.758,2.994,2.994,0,0,0,.8,1.294,3.5,3.5,0,0,0,1.352.776,5.627,5.627,0,0,0,1.75.255,5.407,5.407,0,0,0,2.2-.452,6.473,6.473,0,0,0,1.307-.774l-.027.213a.6.6,0,0,0,.147.509.878.878,0,0,0,.512.233,5.727,5.727,0,0,0,.892.05,6.122,6.122,0,0,0,.874-.048,1.262,1.262,0,0,0,.549-.2.676.676,0,0,0,.28-.475l1.008-7.8a6.8,6.8,0,0,0-.023-2.157M108,23.425a6,6,0,0,1-1.181.916,2.393,2.393,0,0,1-1.178.315,1.391,1.391,0,0,1-1.028-.333,1.039,1.039,0,0,1-.238-.913,1.645,1.645,0,0,1,.221-.651,1.481,1.481,0,0,1,.5-.477,2.721,2.721,0,0,1,.866-.313,6.8,6.8,0,0,1,1.31-.111h.932Z" transform="translate(61.922 8.556)" fill="#0b308d"/>
      <path id="パス_664" data-name="パス 664" d="M73.78,13.9a6.814,6.814,0,1,0,6.812,6.815A6.816,6.816,0,0,0,73.78,13.9m0,10.508a3.693,3.693,0,1,1,3.692-3.693,3.694,3.694,0,0,1-3.692,3.693" transform="translate(41.229 8.56)" fill="#0b308d"/>
      <path id="パス_665" data-name="パス 665" d="M12.215,9.007c5.913.25,10.353-.672,12.394-1.666,2.653-1.293.225-2.538-6.243-4.126-4.025-.987-6.138-1.692-6.174-2.357V9.006Z" transform="translate(7.506 0.529)" fill="#8ac46c"/>
      <path id="パス_666" data-name="パス 666" d="M25.665,7.246V29.2q.979.131,1.827.27a4.34,4.34,0,0,0,5.038-4.285V5.349a4.336,4.336,0,0,0-3.519-4.264c-1.118-.212-2.469-.43-4.054-.63C18.293-.382,14.2.072,12.856.724c-1.824.89.144,1.7,5.509,3.02,4.65,1.142,7.3,2.118,7.3,3.094Z" transform="translate(7.507 0.001)" fill="#e52140"/>
      <path id="パス_667" data-name="パス 667" d="M33.173,32.838V4.231c0,.569-1.058,1.032-1.058,1.032C29.17,6.7,21.224,7.984,11.063,5.81c-1.54-.33-3.719-.829-5.739-1.3A4.342,4.342,0,0,0,0,8.742V28.586a4.339,4.339,0,0,0,3.275,4.209c2.018.509,4.789,1.149,7.788,1.663,10.243,1.755,18.107.889,21.052-.546.664-.323,1.008-.643,1.053-.966l0-6.354" transform="translate(0 2.605)" fill="#0b308d"/>
      <path id="パス_668" data-name="パス 668" d="M68.664,26.314V26.26a.288.288,0,0,0-.288-.288h-.554v-1.91h-.578v1.91H65.666v.578h1.3a7.771,7.771,0,0,1-1.432,3.412l.456.355a7.746,7.746,0,0,0,1.254-2.438v4.69h.578V27.978a5.055,5.055,0,0,0,.8,1.643l.427-.393a12.276,12.276,0,0,1-1.123-2.677h.734Z" transform="translate(40.348 14.816)" fill="#0b308d"/>
      <path id="パス_669" data-name="パス 669" d="M76.389,25.615l.41-.406c-.317-.322-.69-.667-1.112-1.028l-.375.438c.409.352.771.687,1.076,1" transform="translate(46.369 14.889)" fill="#0b308d"/>
      <path id="パス_670" data-name="パス 670" d="M81.751,24.2l-.086-.1h-.5l-.087.1c-.089.1-2.212,2.529-3.986,3.2l.2.54a13.3,13.3,0,0,0,4.118-3.243,19.64,19.64,0,0,0,1.49,1.49,8.969,8.969,0,0,0,2.624,1.753l.2-.54c-1.774-.669-3.9-3.094-3.983-3.2" transform="translate(47.466 14.836)" fill="#0b308d"/>
      <path id="パス_671" data-name="パス 671" d="M86.528,29.753l.3-.494a3.428,3.428,0,0,1-1.315-1.272c.145-.186.27-.364.375-.525a5.483,5.483,0,0,0,.675-1.389l.1-.365h-1.44V24.064h-.578v1.643H83.357v.578h2.511a6.06,6.06,0,0,1-.48.884,7.373,7.373,0,0,1-2.52,2.338l.286.5a8.314,8.314,0,0,0,1.491-1.086v3.711h.578V28.609a4.471,4.471,0,0,0,1.305,1.144" transform="translate(51.02 14.816)" fill="#0b308d"/>
      <path id="パス_672" data-name="パス 672" d="M104.031,32.887h.714V28.851l.225.234a8.163,8.163,0,0,0,1.27,1.1l.386-.6a8.406,8.406,0,0,1-1.509-1.407l-.066-.078.06-.082c.1-.137.189-.267.268-.389a7.641,7.641,0,0,0,.776-1.475l.171-.477h-1.58V23.993h-.714V25.68H102.69v.714h2.582l-.1.192a9.128,9.128,0,0,1-2.808,3.141l.4.595a9.658,9.658,0,0,0,1.053-.842l.218-.2Z" transform="translate(63.022 14.773)" fill="#0b308d"/>
      <path id="パス_673" data-name="パス 673" d="M73.156,28.253V28.2a.288.288,0,0,0-.288-.288H70.51V26.389h2.265V26.1a.289.289,0,0,0-.288-.289H70.51V24.064h-.578v1.747H68.91a10.47,10.47,0,0,0,.291-1.087l-.567-.111a6.855,6.855,0,0,1-1.044,2.554l.43.386a4.113,4.113,0,0,0,.679-1.163h1.233v1.524H67.805v.578h1.907a8.418,8.418,0,0,1-2.5,2.726l.271.509a8.022,8.022,0,0,0,2.446-2.511v3.357h.578V29.281a9.162,9.162,0,0,0,2.319,2.386l.333-.473a8.716,8.716,0,0,1-2.461-2.7h2.456Z" transform="translate(41.382 14.816)" fill="#0b308d"/>
      <path id="パス_674" data-name="パス 674" d="M79.8,26.235v-.053a.288.288,0,0,0-.288-.288H77.044c-.042-.973-.026-1.68-.024-1.69l-.578-.015c0,.01-.018.722.024,1.7H71.6v.578h4.9c.023.368.055.761.1,1.157a13.277,13.277,0,0,0,.511,2.609,2.888,2.888,0,0,0,1.192,1.766,3.033,3.033,0,0,0,1.181.26l.294,0V30.21h-.577v1.452a1.922,1.922,0,0,1-.625-.168c-.666-.355-1.163-1.748-1.4-3.921-.04-.376-.071-.748-.092-1.1H79.8Z" transform="translate(44.082 14.894)" fill="#0b308d"/>
      <path id="パス_675" data-name="パス 675" d="M76.041,26.787v-.053a.288.288,0,0,0-.288-.288H71.932v.578H73.7v2.827H71.661v.578h2.8a3.768,3.768,0,0,0,2.107-.864l-.412-.4a3.187,3.187,0,0,1-1.73.69h-.147V27.024h1.766Z" transform="translate(44.12 16.283)" fill="#0b308d"/>
      <path id="パス_676" data-name="パス 676" d="M85.239,27.37v-.011a.329.329,0,0,0-.33-.33H77.358v.578h2.336l-1.265,2.275H77.55v.578h4.619l.013,0a4.265,4.265,0,0,0,1.645-.506c.257.3.517.611.75.926l.464-.346c-.237-.318-.5-.637-.755-.934l0,0-.032-.032c-.8-.919-1.567-1.653-1.611-1.693l-.4.418c.008.008.549.523,1.186,1.221a3.842,3.842,0,0,1-1.289.372H79.09l1.265-2.275h4.884Z" transform="translate(47.628 16.642)" fill="#0b308d"/>
      <path id="パス_677" data-name="パス 677" d="M90.285,32.236v-.011a.329.329,0,0,0-.33-.33H87.892v-4.32h2v-.249a.329.329,0,0,0-.33-.33H87.892V24.064h-.578V27h-2v.578h2V31.9H84.921v.578h5.364Z" transform="translate(52.284 14.816)" fill="#0b308d"/>
      <path id="パス_678" data-name="パス 678" d="M82.924,26.272v-.011a.329.329,0,0,0-.33-.33H78.386v.578h4.538Z" transform="translate(48.261 15.966)" fill="#0b308d"/>
      <path id="パス_679" data-name="パス 679" d="M95.713,32.853h.714V27.861h1.086V27.5a.357.357,0,0,0-.355-.357h-2.9V25.52l.118-.011a7.731,7.731,0,0,0,2.844-.847l-.37-.614a7.093,7.093,0,0,1-2.792.767h-.514v5.27a7.285,7.285,0,0,1-.879,2.388l.638.32a6.833,6.833,0,0,0,.955-2.737v-2.2h1.457Z" transform="translate(57.051 14.806)" fill="#0b308d"/>
      <path id="パス_680" data-name="パス 680" d="M92.057,32.892h.714V30.24l.225.241a5.789,5.789,0,0,0,.994.843l.386-.6a5.093,5.093,0,0,1-.939-.819l-.194-.217h1.2v-.357a.357.357,0,0,0-.357-.357H92.771V27.9h1.671v-.357a.357.357,0,0,0-.357-.357h-.43L93.736,27a9.526,9.526,0,0,0,.347-.942l-.685-.2a6.851,6.851,0,0,1-.52,1.263l-.037.063H90.188V27.9h1.869v1.074H90.188v.714h1.385l-.048.166a2.8,2.8,0,0,1-.254.591,3.724,3.724,0,0,1-1.284,1.315l.365.616a4.509,4.509,0,0,0,1.465-1.451l.241-.391Zm-1.021-6.781a3.739,3.739,0,0,1,.343.934l.711-.087a4.3,4.3,0,0,0-.425-1.188l-.024-.045Zm1.406-.533h2v-.359a.357.357,0,0,0-.357-.355H92.771v-.877h-.714v.877H90.387v.714Z" transform="translate(55.403 14.768)" fill="#0b308d"/>
      <path id="パス_681" data-name="パス 681" d="M99.636,29.848h1.545v1.843a.941.941,0,0,0,.215.695,1.049,1.049,0,0,0,.835.328h2.8v-1.86h-.714V32h-2.089a.447.447,0,0,1-.292-.079.214.214,0,0,1-.047-.139v-.019l0-.013v-1.9h3.154v-.359a.357.357,0,0,0-.357-.357h-1.814l.679-.906-.57-.43-1,1.336h-.947V27.5h2.987V24.61a.356.356,0,0,0-.355-.357H97.334V27.5h2.989v1.632h-.8l-.037-.066a3.361,3.361,0,0,0-.816-.9c-.189-.157-.364-.28-.472-.352l-.38.606a5.216,5.216,0,0,1,.612.485l.246.225H96.313v.716h2.609l0,1.081h0a1.12,1.12,0,0,1-.187.557,1.431,1.431,0,0,1-1.26.514h-.911v.714h.911a2.238,2.238,0,0,0,1.651-.585,1.793,1.793,0,0,0,.512-1.2Zm3.672-3.062H98.045V26.2h5.264Zm0-1.228H98.045v-.591h5.264Z" transform="translate(59.298 14.933)" fill="#0b308d"/>
      <path id="パス_682" data-name="パス 682" d="M104.645,32.533h5.3v-.359a.356.356,0,0,0-.355-.355H107.6V27.552h2.047v-.359a.355.355,0,0,0-.355-.355H107.6V24.062h-.714v2.776h-1.751v.714h1.751v4.267h-2.244Z" transform="translate(64.428 14.815)" fill="#0b308d"/>
    </g>
  </g>
</svg>
