<svg id="グループ_360" data-name="グループ 360" xmlns="http://www.w3.org/2000/svg" xmlns:xlink="http://www.w3.org/1999/xlink" width="45" height="56" viewBox="0 0 45 56">
  <defs>
    <clipPath id="clip-path">
      <rect id="長方形_461" data-name="長方形 461" width="45" height="56" fill="none"/>
    </clipPath>
    <clipPath id="clip-path-2">
      <path id="パス_270" data-name="パス 270" d="M22.5,0A22.524,22.524,0,0,0,0,22.55C0,39.275,22.382,55.867,22.5,55.995V38.158a15.61,15.61,0,0,1,0-31.22Z" fill="none"/>
    </clipPath>
    <linearGradient id="linear-gradient" y1="1" x2="0.044" y2="1" gradientUnits="objectBoundingBox">
      <stop offset="0" stop-color="#7800ff"/>
      <stop offset="1" stop-color="#ff64b3"/>
    </linearGradient>
    <clipPath id="clip-path-4">
      <path id="パス_274" data-name="パス 274" d="M13.513,22.546a9,9,0,0,0,8.987,9v-18a9,9,0,0,0-8.987,9" fill="none"/>
    </clipPath>
    <linearGradient id="linear-gradient-2" x1="-1.504" y1="2.358" x2="-1.392" y2="2.358" xlink:href="#linear-gradient"/>
  </defs>
  <g id="グループ_353" data-name="グループ 353">
    <g id="グループ_352" data-name="グループ 352" clip-path="url(#clip-path)">
      <path id="パス_268" data-name="パス 268" d="M22.5,38.158A15.61,15.61,0,1,1,38.074,22.546,15.6,15.6,0,0,1,22.5,38.158" fill="#fff"/>
      <path id="パス_269" data-name="パス 269" d="M22.5,0A22.522,22.522,0,0,0,0,22.549C0,39.32,22.5,56,22.5,56S45,39.32,45,22.549A22.526,22.526,0,0,0,22.5,0m0,38.158A15.61,15.61,0,1,1,38.07,22.546,15.6,15.6,0,0,1,22.5,38.158" fill="#f37ded"/>
    </g>
  </g>
  <g id="グループ_355" data-name="グループ 355">
    <g id="グループ_354" data-name="グループ 354" clip-path="url(#clip-path-2)">
      <rect id="長方形_462" data-name="長方形 462" width="22.499" height="55.995" fill="url(#linear-gradient)"/>
    </g>
  </g>
  <g id="グループ_357" data-name="グループ 357">
    <g id="グループ_356" data-name="グループ 356" clip-path="url(#clip-path)">
      <path id="パス_271" data-name="パス 271" d="M22.5,13.547a9,9,0,0,0,0,18Z" fill="#dea826"/>
      <path id="パス_272" data-name="パス 272" d="M22.5,38.158a15.61,15.61,0,0,1,0-31.22Z" fill="#f0f0f0"/>
      <path id="パス_273" data-name="パス 273" d="M31.481,22.546a8.985,8.985,0,1,1-8.981-9,8.991,8.991,0,0,1,8.981,9" fill="#f37ded"/>
    </g>
  </g>
  <g id="グループ_359" data-name="グループ 359">
    <g id="グループ_358" data-name="グループ 358" clip-path="url(#clip-path-4)">
      <rect id="長方形_464" data-name="長方形 464" width="8.987" height="18.003" transform="translate(13.513 13.546)" fill="url(#linear-gradient-2)"/>
    </g>
  </g>
</svg>
